<svg xmlns="http://www.w3.org/2000/svg" viewBox="0 0 364.77 141.11"><defs><style>.cls-1{fill:#3c3c3b;}.cls-2{fill:#069ca0;}.cls-3{fill:#95c11f;}.cls-4{fill:#1d1d1b;}</style></defs><title>LOGO_DOMEIN_HUIZINGEN</title><g id="Laag_2" data-name="Laag 2"><g id="Laag_1-2" data-name="Laag 1"><path class="cls-1" d="M76.29,86.06H66.9V70.89h-10V86.06H47.51V47.79H56.9V62.52h10V47.79h9.39Z"/><path class="cls-1" d="M115.66,72.62a13.82,13.82,0,0,1-1.13,5.59,12.9,12.9,0,0,1-3.15,4.41,14.06,14.06,0,0,1-4.67,2.79,16.39,16.39,0,0,1-5.62,1,15.75,15.75,0,0,1-7.26-1.71,13,13,0,0,1-5.27-4.84,13.42,13.42,0,0,1-1.93-7.2V47.79H96V72.41a5.89,5.89,0,0,0,1.35,4.11A4.82,4.82,0,0,0,101.1,78a5.47,5.47,0,0,0,2.71-.66,4.32,4.32,0,0,0,1.82-1.91,6.7,6.7,0,0,0,.63-3V47.79h9.4Z"/><path class="cls-1" d="M135.39,86.06H126V47.79h9.4Z"/><path class="cls-1" d="M170.05,86.06h-26V78.73l14.68-22.57h-14V47.79h25.3v7.3L155.32,77.68h14.73Z"/><path class="cls-1" d="M188.16,86.06h-9.4V47.79h9.4Z"/><path class="cls-1" d="M229,86.06h-8.22L208.52,66.82V86.06h-9.4V47.79h8.22L219.59,67V47.79H229Z"/><path class="cls-1" d="M268.24,69.34a28,28,0,0,1-.85,7.64,11.86,11.86,0,0,1-3,5.09,14,14,0,0,1-3.31,2.54A13.28,13.28,0,0,1,257.36,86a20.56,20.56,0,0,1-4.11.39,14.3,14.3,0,0,1-10.62-4.3,11.31,11.31,0,0,1-3.2-5.72,39.83,39.83,0,0,1-.68-8.14V65.64a39.93,39.93,0,0,1,.68-8.15,11.3,11.3,0,0,1,3.2-5.73,14.42,14.42,0,0,1,4.69-3.23,15.33,15.33,0,0,1,5.93-1.05q6.81,0,10.5,3.65a15.35,15.35,0,0,1,4.44,9h-9.47a6.07,6.07,0,0,0-1.84-3.28,5.69,5.69,0,0,0-3.65-1,4.38,4.38,0,0,0-3.7,1.68,5.16,5.16,0,0,0-.77,1.48,12,12,0,0,0-.46,2.71c-.11,1.21-.16,3-.16,5.2s.05,4,.16,5.23a12.38,12.38,0,0,0,.46,2.73,5.09,5.09,0,0,0,.77,1.49,4.39,4.39,0,0,0,3.7,1.63,5.15,5.15,0,0,0,5.65-5.59v-.55h-5.65V64h15Z"/><path class="cls-1" d="M304,86.06H278V47.79h26v8.37H287.37v6.41h14.2v8.37h-14.2v6.74H304Z"/><path class="cls-1" d="M343.74,86.06h-8.21L323.27,66.82V86.06h-9.4V47.79h8.22L334.34,67V47.79h9.4Z"/><path class="cls-1" d="M49.16,19.45v3.12a39.66,39.66,0,0,1-.25,4.74,13.31,13.31,0,0,1-1.12,3.85,12.44,12.44,0,0,1-2.62,3.66q-3.75,3.76-10.3,3.76H20.68V.31H34.87q6.56,0,10.3,3.76a12.44,12.44,0,0,1,2.62,3.66,13.37,13.37,0,0,1,1.12,3.86,39.35,39.35,0,0,1,.25,4.73Zm-9.4,0a58.27,58.27,0,0,0-.2-6.24,5.25,5.25,0,0,0-.8-2.37,5,5,0,0,0-4.52-2.15H30.08V30.21h4.16a5,5,0,0,0,4.52-2.16,4.29,4.29,0,0,0,.62-1.35,14.5,14.5,0,0,0,.28-2.29C39.73,23.32,39.76,21.67,39.76,19.45Z"/><path class="cls-1" d="M86.76,19.45v1.28c0,2.14-.07,4-.22,5.51a17,17,0,0,1-1.06,4.46,11.32,11.32,0,0,1-2.57,3.89,14.72,14.72,0,0,1-4.68,3.21,15.23,15.23,0,0,1-6,1.09A17,17,0,0,1,68,38.41,13.42,13.42,0,0,1,64.54,37a14.79,14.79,0,0,1-3-2.39,11.31,11.31,0,0,1-3.2-5.72,39.83,39.83,0,0,1-.68-8.14V18.16A40,40,0,0,1,58.34,10a11.3,11.3,0,0,1,3.2-5.73,14.61,14.61,0,0,1,4.7-3.23,17.5,17.5,0,0,1,12,0,14.57,14.57,0,0,1,4.7,3.22,11.23,11.23,0,0,1,2.57,3.89,17.31,17.31,0,0,1,1.06,4.48c.15,1.54.22,3.38.22,5.51Zm-9.39,0A43.77,43.77,0,0,0,77,12.78,6.3,6.3,0,0,0,76,10.05a3.87,3.87,0,0,0-1.53-1.21,5.28,5.28,0,0,0-2.24-.47A5,5,0,0,0,70,8.83a4.41,4.41,0,0,0-1.58,1.22,5.16,5.16,0,0,0-.77,1.48,12,12,0,0,0-.46,2.71c-.11,1.21-.16,3-.16,5.21s0,4,.16,5.18a11.72,11.72,0,0,0,.46,2.69,5.09,5.09,0,0,0,.77,1.47,5,5,0,0,0,7.53,0A6.92,6.92,0,0,0,77,26.05,42.4,42.4,0,0,0,77.37,19.45Z"/><path class="cls-1" d="M132.18,38.58h-9.39V20.26l-5.43,9.45h-6l-5.44-9.45V38.58H96.52V.31h9.24l8.58,16.88L123,.31h9.23Z"/><path class="cls-1" d="M169.18,38.58h-26V.31h26V8.69H152.57v6.4h14.2v8.37h-14.2v6.75h16.61Z"/><path class="cls-1" d="M188.47,38.58h-9.4V.31h9.4Z"/><path class="cls-1" d="M229.3,38.58h-8.21L208.83,19.34V38.58h-9.39V.31h8.21l12.26,19.24V.31h9.39Z"/><path class="cls-2" d="M318.11,115.43a151.5,151.5,0,0,0-22.44-1q-5.62.15-11.25.46c-3.75.24-7.5.5-11.26.82-15,1.29-30,3.06-45,5-30,3.83-60.14,8.16-90.64,11.29-15.26,1.56-30.61,2.88-46.2,3.45-7.81.27-15.67.39-23.67.1A165.25,165.25,0,0,1,43,133.13l-3.22-.66-3.27-.8a62.78,62.78,0,0,1-6.8-2.34A52.72,52.72,0,0,1,17.11,122a42,42,0,0,1-5.5-5,49,49,0,0,1-4.73-5.87,44.57,44.57,0,0,1-3.66-6.73A36.07,36.07,0,0,1,.83,97,34.58,34.58,0,0,1,.92,81.57a34.1,34.1,0,0,1,2.62-7.09,32.71,32.71,0,0,1,4-6,34.44,34.44,0,0,1,4.94-4.81A36.26,36.26,0,0,1,18,60.05a36.74,36.74,0,0,1,11.84-3.87.52.52,0,0,1,.6.44.5.5,0,0,1-.12.43h0a77.29,77.29,0,0,0-6.87,9.13A38.57,38.57,0,0,0,21,70.77a28.23,28.23,0,0,0-1.63,4.51,21.81,21.81,0,0,0-.73,4.32,17.85,17.85,0,0,0,.12,4,20.38,20.38,0,0,0,2.3,7.09,25.32,25.32,0,0,0,4.55,6,27.72,27.72,0,0,0,2.91,2.59c1.05.8,2.16,1.54,3.29,2.26A42.28,42.28,0,0,0,39.22,105a35.71,35.71,0,0,0,4.05,1.19l2.27.56,2.38.49c3.22.61,6.63,1,10.11,1.4s7,.6,10.65.75c7.21.33,14.57.38,22,.29,14.83-.21,29.86-.93,44.94-1.75,30.19-1.65,60.63-3.68,91.3-4.29,15.34-.25,30.74-.23,46.17.79,7.71.49,15.44,1.25,23.12,2.45a116.34,116.34,0,0,1,22.68,5.58,1.53,1.53,0,0,1-.74,2.94Z"/><path class="cls-3" d="M160.45,140.11c4.22-.49,8.44-1.17,12.66-1.89l12.66-2.15q12.67-2.15,25.37-4.17c8.48-1.3,17-2.55,25.48-3.7s17-2.09,25.61-3,17.14-1.55,25.75-2,17.24-.86,25.91-.79,17.37.44,26.09,1.39l3.27.37,3.27.48c1.09.17,2.18.31,3.27.51l3.27.63a21.35,21.35,0,0,1,6.42,1.94,10.88,10.88,0,0,1,2.87,2.11,11.55,11.55,0,0,1,2.36,3.26.71.71,0,0,1-.33.93h0a15.27,15.27,0,0,1-7,1.53c-2.13,0-4-.68-6.07-1l-3-.62c-1-.19-2.05-.33-3.07-.49l-3.08-.48-3.11-.37c-8.29-1-16.73-1.39-25.18-1.53-16.92-.35-33.94.47-51,1.55-8.51.55-17,1.23-25.52,2s-17,1.49-25.55,2.33l-25.57,2.45c-8.54.73-17.07,1.64-25.71,1.76a.5.5,0,0,1-.06-1Z"/><path class="cls-4" d="M244.41,38.89h-2l-3.55-16.4H241l2.37,13.2,2.4-13.2H248Z"/><path class="cls-4" d="M255,38.89,254.26,35h-3.81l-.78,3.87H247.6l3.82-16.4h1.91l3.81,16.4Zm-2.67-13.2-1.55,7.56h3.07Z"/><path class="cls-4" d="M265,38.89l-4.24-11.22V38.89h-2V22.49h1.84l4.19,11.22V22.49h2v16.4Z"/></g></g></svg>