<svg xmlns="http://www.w3.org/2000/svg" viewBox="0 0 160.27 229.03"><defs><style>.cls-1{fill:#069ca0;}.cls-2{fill:#95c11f;}</style></defs><title>LOGO_DOMEIN_HUIZINGEN_SMALL</title><g id="Laag_2" data-name="Laag 2"><g id="Laag_1-2" data-name="Laag 1"><path class="cls-1" d="M.36,168.12c.64-2.93,1.23-5.87,1.9-8.77l1-4.35c.34-1.45.65-2.9.91-4.36L5.81,142c.27-1.44.6-2.87.83-4.32l.7-4.31a265.43,265.43,0,0,0,3.8-33.7l.17-4.07c0-1.35,0-2.67,0-4v-4c0-1.31-.14-2.59-.2-3.88l-.23-3.83-.43-3.74c-.23-2.5-.68-4.91-1-7.31-.16-1.21-.5-2.4-.69-3.59S8.3,62.88,8,61.67s-.57-2.39-.81-3.59l-.92-3.69c-1.23-5-2.7-10.39-4-16.82v0a31.32,31.32,0,0,1,61.4-12.43c.15.75.28,1.57.38,2.31.68,5.45,1.38,11.92,1.78,18.85L66,51.53c0,1.81,0,3.61,0,5.41s-.09,3.63-.16,5.45-.14,3.63-.35,5.44c-.4,3.61-.67,7.23-1.34,10.75l-.9,5.28C63,85.59,62.56,87.3,62.18,89s-.75,3.43-1.18,5.1l-1.39,5c-.47,1.65-.91,3.31-1.42,4.93l-1.62,4.78a262.77,262.77,0,0,1-15.38,35.92c-2.79,5.74-6,11.19-9,16.68s-6.42,10.75-9.69,16.05a12.14,12.14,0,0,1-22.2-8.93Z"/><path class="cls-2" d="M15.82,209.77a82.59,82.59,0,0,0,11.46-11,147.5,147.5,0,0,0,10.09-13.11c6.42-9.27,12.29-19.39,18.61-29.84s12.94-21.36,21.48-32.31a135.72,135.72,0,0,1,14.79-16.2,98.67,98.67,0,0,1,20-14.53l3.9-2.13a29.85,29.85,0,0,1,28.55,52.42,30.59,30.59,0,0,1-9.7,3.28A39.66,39.66,0,0,0,124,150a81.89,81.89,0,0,0-12.21,7.56c-8.33,6.14-16.71,14-25.29,22.38s-17.36,17.29-27.07,25.8A178,178,0,0,1,44,218a106,106,0,0,1-17.65,10.14A10.62,10.62,0,0,1,15.49,210Z"/></g></g></svg>