<svg xmlns="http://www.w3.org/2000/svg" width="2336" height="2336" viewBox="0 0 2336 2336">
  <g id="Group_211" data-name="Group 211" transform="translate(-16205 -20116)">
    <rect id="Rectangle_68" data-name="Rectangle 68" width="2336" height="2336" transform="translate(16205 20116)" fill="#128c8f"/>
    <g id="gift" transform="translate(16829.779 20740.779)">
      <path id="Path_28" data-name="Path 28" d="M869.864,12V553.165H4V12" transform="translate(106.233 531.165)" fill="none" stroke="#fff" stroke-linecap="round" stroke-linejoin="round" stroke-width="35"/>
      <rect id="Rectangle_4" data-name="Rectangle 4" width="1082.33" height="270.583" transform="translate(2 272.583)" stroke-width="35" stroke="#fff" stroke-linecap="round" stroke-linejoin="round" fill="none"/>
      <line id="Line_2" data-name="Line 2" y1="811.748" transform="translate(543.165 272.583)" fill="none" stroke="#fff" stroke-linecap="round" stroke-linejoin="round" stroke-width="35"/>
      <path id="Path_29" data-name="Path 29" d="M383.816,272.583H140.291A135.291,135.291,0,1,1,140.291,2C329.7,2,383.816,272.583,383.816,272.583Z" transform="translate(159.35 0)" fill="none" stroke="#fff" stroke-linecap="round" stroke-linejoin="round" stroke-width="35"/>
      <path id="Path_30" data-name="Path 30" d="M12,272.583H255.524A135.291,135.291,0,0,0,255.524,2C66.117,2,12,272.583,12,272.583Z" transform="translate(531.165 0)" fill="none" stroke="#fff" stroke-linecap="round" stroke-linejoin="round" stroke-width="35"/>
    </g>
  </g>
</svg>
