<svg xmlns="http://www.w3.org/2000/svg" width="2336" height="2336" viewBox="0 0 2336 2336">
  <g id="Group_210" data-name="Group 210" transform="translate(-13719 -20116)">
    <rect id="Rectangle_68" data-name="Rectangle 68" width="2336" height="2336" transform="translate(13719 20116)" fill="#128c8f"/>
    <g id="Group_209" data-name="Group 209" transform="translate(13744.039 20379.039)">
      <path id="Path_31" data-name="Path 31" d="M541.109,0C242.146,0,0,225.462,0,500.977a485.646,485.646,0,0,0,201.563,390.05v191.192L385.991,981.212a583.034,583.034,0,0,0,155.118,20.742c298.963,0,541.109-225.462,541.109-500.977S840.072,0,541.109,0Zm53.66,676.387-135.277-147-271.457,147L483.842,360.74l141.139,147,51.128-28.3,214.467-118.7Z" transform="translate(601.852 363.852)" fill="none" stroke="#fff" stroke-width="35"/>
    </g>
  </g>
</svg>
