<?xml version="1.0" encoding="utf-8"?>
<!-- Generator: Adobe Illustrator 23.0.0, SVG Export Plug-In . SVG Version: 6.00 Build 0)  -->
<svg version="1.1" id="Laag_1" xmlns="http://www.w3.org/2000/svg" xmlns:xlink="http://www.w3.org/1999/xlink" x="0px" y="0px"
	 viewBox="0 0 76.9 74.1" style="enable-background:new 0 0 76.9 74.1;" xml:space="preserve">
<style type="text/css">
	.st0{fill:#010202;}
</style>
<path class="st0" d="M51.8,5C51.8,5,51.8,5,51.8,5c-1.6,0.4-2.9,1.4-4.1,3.1c-1.2,1.8-2,4.2-2.3,6.6l0,0.1l0,0.1
	c-0.3,1.9,0.1,4.1,0.9,5.7c0.7,1.5,1.7,2.4,2.9,2.6c0,0,0,0,0,0c0,0,0.1,0,0.3,0c2.6-0.9,4.1-3.1,4.9-4.8c1.2-2.4,1.6-5.4,1.2-8.1
	l0-0.2l0-0.2c-0.1-1.3-0.7-2.7-1.5-3.7C53.6,5.7,52.8,5,51.8,5 M24,5.3C24,5.3,24,5.3,24,5.3L24,5.3L24,5.3c-0.8,0-1.5,0.7-1.7,1
	c-0.7,0.8-1.3,1.9-1.5,3l0,0l0,0c-0.5,2.9-0.1,6.2,1.2,8.9c0.9,1.8,2.5,4.2,5.3,5.2c0,0,0.1,0,0.1,0c0.1,0,0.1,0,0.2,0l0,0l0,0
	c0.3-0.1,1.4-0.2,2.3-1.9c0.7-1.3,1.1-3.1,1-4.8l0-0.1l0-0.1c-0.1-2.6-0.8-5.2-2-7.3c-1.2-2.1-2.8-3.4-4.6-3.9l0,0l0,0
	C24.2,5.3,24.1,5.3,24,5.3 M69.5,27.2c-2.2,0.3-3.8,1.7-4.8,2.9c-1.5,1.8-2.5,4.3-2.8,6.7l0,0.2l0,0.2c-0.3,1.5,0.1,3.5,1,4.6
	c0.5,0.6,0.9,0.8,1.3,0.9c2.3-0.1,4.1-1.7,5.1-3.1c1.6-2,2.6-4.7,2.7-7.2l0-0.2l0-0.2c0.2-1.5-0.3-3.2-1.2-4.2
	C70.3,27.5,69.9,27.3,69.5,27.2 M7.6,28.8c-0.8,0-1.8,0.4-2.1,1.4C5,31.5,4.9,33,5.1,34.6c0.2,1.6,0.8,3.2,1.6,4.6
	c0.7,1.3,1.7,2.4,2.8,3.2c1,0.8,2.2,1.3,3.4,1.6c0,0,0.1,0,0.1,0c0.7,0,1.6-0.9,1.8-1.9l0,0c1.3-4.8-1.5-10.7-6-12.9l-0.1,0
	l-0.1-0.1C8.3,28.9,8,28.8,7.6,28.8 M39.4,43.5L39.4,43.5L39.4,43.5L39.4,43.5L39.4,43.5c-4.3,0-9,2.2-12,5.7
	c-4.1,5.2-6.7,10.5-7.8,15.6L19.6,65l-0.1,0.3c-0.3,0.8-0.1,1.7,0.5,2.4c0.2,0.3,0.9,1.1,1.9,1.1l0,0l0,0c0.1,0,0.1,0,0.2,0
	c2.2,0,4.5-0.9,7-1.8c2.8-1,5.9-2.2,9.4-2.5c0.8-0.1,1.6-0.2,2.4-0.2c4.4,0,8.2,1.6,11.6,3c0.9,0.4,1.8,0.7,2.6,1.1l0.1,0l0.1,0
	c0.7,0.3,1.5,0.5,2.2,0.5c0.7,0,1.4-0.1,1.8-0.4c0.3-0.2,0.5-0.3,0.7-0.6c0.6-2.2-1-5.4-2.4-8.3c-2-3.1-3.8-5.9-5.9-8.5
	c-2.3-2.8-4.5-4.8-6.9-6.3l0,0l0,0C43.4,44,41.5,43.5,39.4,43.5 M51.8,0c5,0,8.4,5,8.7,9.7c1.1,7.2-2.2,15.9-9.6,18.4
	c-0.6,0.2-1.1,0.2-1.7,0.2c-0.3,0-0.7,0-1-0.1c-6.1-1.2-8.6-8.4-7.8-14C41,8.1,44.7,1.2,51.2,0c0.2,0,0.3,0,0.5,0
	C51.8,0,51.8,0,51.8,0z M24,0.3c0.5,0,1.1,0.1,1.6,0.2c6.7,1.8,10.1,9.3,10.3,15.8c0.2,4.9-2.1,11-7.5,11.9c-0.3,0.1-0.7,0.1-1,0.1
	c-0.4,0-0.9,0-1.3-0.1c-8-2.4-11.5-12-10.2-19.8c0.7-3.9,3.8-8.1,7.9-8.2C23.9,0.3,24,0.3,24,0.3z M69.5,22.2
	c5.1,0.3,7.8,5.8,7.3,10.4c-0.2,7-5.4,15-12.9,15.1c-5.4-0.4-7.9-6.7-7-11.5C57.6,29.7,62.5,22.7,69.5,22.2z M7.6,23.8
	C7.6,23.8,7.6,23.8,7.6,23.8c1.2,0,2.4,0.3,3.5,0.9c6.6,3.2,10.5,11.5,8.6,18.7c-0.8,3-3.5,5.6-6.7,5.6c-0.3,0-0.7,0-1-0.1
	C3.3,47.2-1.9,36.8,0.7,28.6C1.7,25.6,4.6,23.8,7.6,23.8z M39.4,38.5c2.8,0,5.7,0.7,8.2,2.3c6.4,3.9,10.6,10.4,14.5,16.6
	c1.9,3.8,4.2,8.4,2.7,12.7c-1.3,2.8-4.2,4-7.1,4c-1.5,0-2.9-0.3-4.2-0.9c-4-1.5-8-3.8-12.4-3.8c-0.6,0-1.2,0-1.9,0.1
	c-5.9,0.3-11,4.3-17,4.3c-0.1,0-0.2,0-0.4,0c-5,0-8.7-5.5-7.1-10.2c1.3-6.6,4.7-12.6,8.8-17.8c3.8-4.5,9.8-7.5,15.7-7.5
	C39.4,38.5,39.4,38.5,39.4,38.5z"/>
</svg>
