<svg xmlns="http://www.w3.org/2000/svg" viewBox="0 0 502.37 561"><defs><style>.cls-1{fill:#acacac;}.cls-2{fill:#3c3c3b;}</style></defs><title>MESSAGES_2</title><g id="Laag_2" data-name="Laag 2"><g id="Laag_1-2" data-name="Laag 1"><path class="cls-1" d="M0,113.85a4.48,4.48,0,0,0,7.76,3.05L27.05,96.16a23.05,23.05,0,0,1,16.88-7.35H301.45a28.3,28.3,0,0,0,28.3-28.31V28.3A28.3,28.3,0,0,0,301.45,0H28.3A28.3,28.3,0,0,0,0,28.3Z"/><path class="cls-2" d="M41.4,38.05H39l-2.72-9-2.73,9H31.13L27.18,23.24h3l2.29,9.34,2.71-9.34h2.16l2.7,9.34,2.31-9.34h3Z"/><path class="cls-2" d="M47,25.36v-2.2h2.77v2.2ZM47,38.05V27.53h2.7V38.05Z"/><path class="cls-2" d="M52.28,42.1H50.74V39.82h1c.68,0,.95-.34.95-1V27.53h2.71V39A3,3,0,0,1,52.28,42.1Zm.41-16.74v-2.2h2.77v2.2Z"/><path class="cls-2" d="M67,42.15a5.08,5.08,0,0,1-3.93-1.42L64.77,39a2.78,2.78,0,0,0,2.12.83,2.05,2.05,0,0,0,2.19-2.25v-1.1a3.18,3.18,0,0,1-2.58,1.08,3.58,3.58,0,0,1-2.58-1c-1-1-1.1-2.41-1.1-4.3s.08-3.27,1.1-4.29a3.66,3.66,0,0,1,2.6-.95,3.18,3.18,0,0,1,2.64,1.14v-1h2.62V37.65A4.4,4.4,0,0,1,67,42.15Zm.27-12.63c-1.6,0-1.77,1.37-1.77,2.81s.17,2.83,1.77,2.83,1.79-1.4,1.79-2.83S68.89,29.52,67.29,29.52Z"/><path class="cls-2" d="M80.37,38.05v-.94a3.28,3.28,0,0,1-2.66,1,3.76,3.76,0,0,1-2.77-.95,3.5,3.5,0,0,1-.89-2.44c0-1.72,1.18-3.14,3.74-3.14h2.52v-.54c0-1.18-.58-1.7-2-1.7a2.4,2.4,0,0,0-2.08.93L74.5,28.63a4.52,4.52,0,0,1,3.89-1.54c3.06,0,4.62,1.29,4.62,3.82v7.14Zm-.06-4.58H78.25c-1.08,0-1.6.44-1.6,1.25S77.17,36,78.29,36a2,2,0,0,0,1.6-.52,1.68,1.68,0,0,0,.42-1.37Z"/><path class="cls-2" d="M91.47,38.05v-.94a3.27,3.27,0,0,1-2.66,1,3.74,3.74,0,0,1-2.76-.95,3.46,3.46,0,0,1-.9-2.44c0-1.72,1.19-3.14,3.74-3.14h2.52v-.54c0-1.18-.58-1.7-2-1.7a2.42,2.42,0,0,0-2.08.93l-1.7-1.68a4.52,4.52,0,0,1,3.89-1.54c3.06,0,4.62,1.29,4.62,3.82v7.14Zm-.06-4.58H89.35c-1.08,0-1.6.44-1.6,1.25S88.27,36,89.39,36A2.06,2.06,0,0,0,91,35.43a1.68,1.68,0,0,0,.41-1.37Z"/><path class="cls-2" d="M103.33,38.05V31.5a1.81,1.81,0,1,0-3.6,0v6.55H97V27.21h2.65v1a3.68,3.68,0,0,1,2.7-1.12,3.55,3.55,0,0,1,2.56.95,4,4,0,0,1,1.1,3.08v6.93Z"/><path class="cls-2" d="M120.07,38.05V31.5a1.81,1.81,0,1,0-3.6,0v6.55h-2.71V27.21h2.64v1a3.72,3.72,0,0,1,2.71-1.12,3.55,3.55,0,0,1,2.56.95,4,4,0,0,1,1.1,3.08v6.93Z"/><path class="cls-2" d="M131.23,38.05v-.94a3.28,3.28,0,0,1-2.66,1,3.78,3.78,0,0,1-2.77-.95,3.5,3.5,0,0,1-.89-2.44c0-1.72,1.19-3.14,3.74-3.14h2.52v-.54c0-1.18-.58-1.7-2-1.7a2.4,2.4,0,0,0-2.08.93l-1.7-1.68a4.52,4.52,0,0,1,3.89-1.54c3.05,0,4.61,1.29,4.61,3.82v7.14Zm-.06-4.58h-2.06c-1.08,0-1.6.44-1.6,1.25S128,36,129.15,36a2,2,0,0,0,1.6-.52,1.65,1.65,0,0,0,.42-1.37Z"/><path class="cls-2" d="M142.34,38.05v-.94a3.3,3.3,0,0,1-2.67,1,3.75,3.75,0,0,1-2.76-.95,3.46,3.46,0,0,1-.9-2.44c0-1.72,1.19-3.14,3.75-3.14h2.51v-.54c0-1.18-.58-1.7-2-1.7a2.4,2.4,0,0,0-2.08.93l-1.71-1.68a4.52,4.52,0,0,1,3.89-1.54c3.06,0,4.62,1.29,4.62,3.82v7.14Zm-.07-4.58h-2.06c-1.08,0-1.6.44-1.6,1.25s.52,1.23,1.65,1.23a2.05,2.05,0,0,0,1.6-.52,1.68,1.68,0,0,0,.41-1.37Z"/><path class="cls-2" d="M153.77,30.17a1.78,1.78,0,0,0-1.43-.65,1.81,1.81,0,0,0-1.75,2v6.53h-2.7V27.21h2.64v1a3.68,3.68,0,0,1,2.72-1.16,3.27,3.27,0,0,1,2.56,1Z"/><path class="cls-2" d="M168.16,38.05V37a3.26,3.26,0,0,1-2.68,1.14,3.65,3.65,0,0,1-2.64-1c-1-1.07-1.13-2.75-1.13-4.58s.09-3.49,1.13-4.55a3.57,3.57,0,0,1,2.62-1,3.25,3.25,0,0,1,2.64,1.08V23.24h2.7V38.05Zm-1.91-8.53c-1.62,0-1.83,1.35-1.83,3.1s.21,3.12,1.83,3.12,1.85-1.37,1.85-3.12S167.87,29.52,166.25,29.52Z"/><path class="cls-2" d="M176,33.47a2.22,2.22,0,0,0,2.37,2.42,3.06,3.06,0,0,0,2.45-1l1.65,1.6a5.12,5.12,0,0,1-4.12,1.7c-2.56,0-5-1.16-5-5.55,0-3.54,1.91-5.53,4.72-5.53,3,0,4.72,2.16,4.72,5.24v1.14Zm3.87-3a2,2,0,0,0-3.62,0,2.57,2.57,0,0,0-.25,1.16h4.12A2.71,2.71,0,0,0,179.83,30.46Z"/><path class="cls-2" d="M189.31,38.05V36l4.8-6.34h-4.53V27.21h8v2.06l-4.86,6.35h4.86v2.43Z"/><path class="cls-2" d="M210.87,38.05h-2.22l-2.27-6.8-2.27,6.8h-2.22l-3.33-10.84h2.87l1.75,6.7,2.2-6.7h2l2.22,6.7,1.75-6.7h2.85Z"/><path class="cls-2" d="M217.8,33.47a2.22,2.22,0,0,0,2.37,2.42,3.08,3.08,0,0,0,2.45-1l1.64,1.6a5.1,5.1,0,0,1-4.12,1.7c-2.55,0-5-1.16-5-5.55,0-3.54,1.92-5.53,4.72-5.53,3,0,4.73,2.16,4.73,5.24v1.14Zm3.86-3a2,2,0,0,0-3.61,0,2.57,2.57,0,0,0-.25,1.16h4.11A2.57,2.57,0,0,0,221.66,30.46Z"/><path class="cls-2" d="M239.67,38.05V31.5a1.81,1.81,0,1,0-3.6-.07v6.62h-2.7V31.5a1.74,1.74,0,0,0-1.79-2,1.76,1.76,0,0,0-1.81,2v6.55h-2.7V27.21h2.64v1a3.79,3.79,0,0,1,2.7-1.12,3.36,3.36,0,0,1,2.87,1.37,4.14,4.14,0,0,1,3.25-1.37,3.78,3.78,0,0,1,2.66.95,4.12,4.12,0,0,1,1.19,3.08v6.93Z"/><path class="cls-2" d="M250,38.05h-2.12l-4-10.84h2.85l2.2,6.7,2.19-6.7h2.85Z"/><path class="cls-2" d="M255.49,25.36v-2.2h2.77v2.2Zm0,12.69V27.53h2.7V38.05Z"/><path class="cls-2" d="M260.8,42.1h-1.54V39.82h1c.68,0,.95-.34.95-1V27.53H264V39A3,3,0,0,1,260.8,42.1Zm.41-16.74v-2.2H264v2.2Z"/><path class="cls-2" d="M271.65,38.05h-2.12l-4-10.84h2.85l2.2,6.7,2.19-6.7h2.84Z"/><path class="cls-2" d="M279.14,33.47a2.22,2.22,0,0,0,2.37,2.42,3.07,3.07,0,0,0,2.45-1l1.64,1.6a5.09,5.09,0,0,1-4.11,1.7c-2.56,0-5-1.16-5-5.55,0-3.54,1.91-5.53,4.72-5.53,3,0,4.72,2.16,4.72,5.24v1.14Zm3.87-3a1.89,1.89,0,0,0-1.81-1.13,1.87,1.87,0,0,0-1.81,1.13,2.57,2.57,0,0,0-.25,1.16h4.12A2.86,2.86,0,0,0,283,30.46Z"/><path class="cls-2" d="M294.3,30.17a1.81,1.81,0,0,0-3.19,1.35v6.53h-2.7V27.21h2.64v1a3.68,3.68,0,0,1,2.73-1.16,3.27,3.27,0,0,1,2.56,1Z"/><path class="cls-2" d="M296.1,41.48V35.1h3v4.09Z"/><path class="cls-2" d="M32.31,67.1a5.05,5.05,0,0,1-3.93-1.42L30.07,64a2.77,2.77,0,0,0,2.12.83,2,2,0,0,0,2.18-2.24V61.46a3.15,3.15,0,0,1-2.57,1.08,3.6,3.6,0,0,1-2.58-.95c-1-1-1.11-2.42-1.11-4.31S28.2,54,29.22,53a3.67,3.67,0,0,1,2.6-1,3.16,3.16,0,0,1,2.64,1.15v-1h2.62V62.61C37.08,65.21,35.23,67.1,32.31,67.1Zm.28-12.63c-1.61,0-1.77,1.38-1.77,2.81s.16,2.83,1.77,2.83,1.78-1.39,1.78-2.83S34.19,54.47,32.59,54.47Z"/><path class="cls-2" d="M45.67,63v-.93a3.34,3.34,0,0,1-2.67,1,3.75,3.75,0,0,1-2.76-1,3.44,3.44,0,0,1-.9-2.43c0-1.73,1.19-3.14,3.75-3.14H45.6V56c0-1.19-.58-1.71-2-1.71a2.38,2.38,0,0,0-2.08.94L39.8,53.58A4.55,4.55,0,0,1,43.69,52c3.06,0,4.62,1.29,4.62,3.83V63Zm-.07-4.57H43.54c-1.08,0-1.6.43-1.6,1.24s.52,1.23,1.65,1.23a2.05,2.05,0,0,0,1.6-.52A1.67,1.67,0,0,0,45.6,59Z"/><path class="cls-2" d="M56.77,63v-.93a3.33,3.33,0,0,1-2.66,1,3.78,3.78,0,0,1-2.77-1,3.48,3.48,0,0,1-.89-2.43c0-1.73,1.18-3.14,3.74-3.14h2.52V56c0-1.19-.59-1.71-2-1.71a2.38,2.38,0,0,0-2.08.94L50.9,53.58A4.56,4.56,0,0,1,54.79,52c3.06,0,4.62,1.29,4.62,3.83V63Zm-.06-4.57H54.65c-1.08,0-1.6.43-1.6,1.24s.52,1.23,1.64,1.23a2.05,2.05,0,0,0,1.6-.52A1.67,1.67,0,0,0,56.71,59Z"/><path class="cls-2" d="M68.62,63V56.45a1.74,1.74,0,0,0-1.79-2,1.76,1.76,0,0,0-1.81,2V63h-2.7V52.17H65v1A3.75,3.75,0,0,1,67.66,52a3.52,3.52,0,0,1,2.56,1,4,4,0,0,1,1.11,3.08V63Z"/><path class="cls-2" d="M78.6,67.06H77.06V64.77h1c.69,0,1-.33,1-1V52.48h2.7V64A2.94,2.94,0,0,1,78.6,67.06ZM79,50.32V48.11h2.76v2.21Z"/><path class="cls-2" d="M91,63V62a3.73,3.73,0,0,1-2.71,1.13,3.51,3.51,0,0,1-2.55-1,4,4,0,0,1-1.11-3.08V52.17h2.71v6.55a1.8,1.8,0,1,0,3.59,0V52.17h2.71V63Z"/><path class="cls-2" d="M99.75,63a2.94,2.94,0,0,1-3.16-3.1V48.19h2.7V59.74c0,.64.27,1,1,1h1V63Z"/><path class="cls-2" d="M106.51,63a2.94,2.94,0,0,1-3.16-3.1V48.19h2.7V59.74c0,.64.27,1,1,1h1V63Z"/><path class="cls-2" d="M110.17,50.32V48.11h2.76v2.21Zm0,12.68V52.48h2.7V63Z"/><path class="cls-2" d="M118.05,58.43a2.22,2.22,0,0,0,2.37,2.41,3,3,0,0,0,2.45-1l1.65,1.6a5.13,5.13,0,0,1-4.12,1.71c-2.56,0-5-1.17-5-5.56,0-3.53,1.91-5.53,4.72-5.53,3,0,4.72,2.16,4.72,5.24v1.15Zm3.87-3a2,2,0,0,0-3.62,0,2.64,2.64,0,0,0-.25,1.17h4.12A3,3,0,0,0,121.92,55.41Z"/><path class="cls-2" d="M144.75,63V56.45a1.81,1.81,0,1,0-3.6-.06V63h-2.7V56.45a1.81,1.81,0,1,0-3.6,0V63h-2.7V52.17h2.64v1a3.8,3.8,0,0,1,2.7-1.12,3.37,3.37,0,0,1,2.87,1.37A4.15,4.15,0,0,1,143.6,52a3.81,3.81,0,0,1,2.67,1,4.09,4.09,0,0,1,1.18,3.08V63Z"/><path class="cls-2" d="M152.48,58.43a2.22,2.22,0,0,0,2.37,2.41,3.06,3.06,0,0,0,2.46-1l1.64,1.6a5.1,5.1,0,0,1-4.12,1.71c-2.56,0-5-1.17-5-5.56,0-3.53,1.91-5.53,4.72-5.53,3,0,4.72,2.16,4.72,5.24v1.15Zm3.87-3a2,2,0,0,0-3.62,0,2.64,2.64,0,0,0-.25,1.17h4.12A2.64,2.64,0,0,0,156.35,55.41Z"/><path class="cls-2" d="M163.88,58.43a2.22,2.22,0,0,0,2.37,2.41,3,3,0,0,0,2.45-1l1.65,1.6a5.13,5.13,0,0,1-4.12,1.71c-2.56,0-5-1.17-5-5.56,0-3.53,1.91-5.53,4.72-5.53,3,0,4.72,2.16,4.72,5.24v1.15Zm3.87-3a1.9,1.9,0,0,0-1.81-1.12,1.88,1.88,0,0,0-1.81,1.12,2.64,2.64,0,0,0-.25,1.17H168A3,3,0,0,0,167.75,55.41Z"/><path class="cls-2" d="M180.74,54.83l-1.54,2a1.89,1.89,0,0,0-.37,1.06v.43h-2.71v-.62a3.19,3.19,0,0,1,.79-2.16l1.54-2a2.49,2.49,0,0,0,.61-1.39,1.62,1.62,0,0,0-1.69-1.71,1.59,1.59,0,0,0-1.66,1.73H173a4.38,4.38,0,0,1,8.75,0A4.19,4.19,0,0,1,180.74,54.83ZM176,63V60.24h2.87V63Z"/><path class="cls-1" d="M0,350.18a4.48,4.48,0,0,0,7.76,3.05l19.29-20.74a23.05,23.05,0,0,1,16.88-7.35H321.46a28.3,28.3,0,0,0,28.3-28.31v-32.2a28.3,28.3,0,0,0-28.3-28.3H28.3A28.3,28.3,0,0,0,0,264.63Z"/><path class="cls-2" d="M41.4,274.38H39l-2.72-9-2.73,9H31.13l-3.95-14.81h3l2.29,9.34,2.71-9.34h2.16l2.7,9.34,2.31-9.34h3Z"/><path class="cls-2" d="M48.31,269.8a2.21,2.21,0,0,0,2.37,2.41,3.08,3.08,0,0,0,2.45-1l1.64,1.6a5.09,5.09,0,0,1-4.11,1.7c-2.56,0-5-1.16-5-5.55,0-3.54,1.92-5.53,4.72-5.53,3,0,4.73,2.16,4.73,5.24v1.14Zm3.86-3a2,2,0,0,0-3.61,0,2.57,2.57,0,0,0-.25,1.16h4.11A2.57,2.57,0,0,0,52.17,266.79Z"/><path class="cls-2" d="M66.15,278.47a5.06,5.06,0,0,1-3.93-1.41l1.68-1.71a2.74,2.74,0,0,0,2.12.84,2.06,2.06,0,0,0,2.19-2.25v-1.1a3.18,3.18,0,0,1-2.58,1.08,3.58,3.58,0,0,1-2.58-1c-1-1-1.1-2.41-1.1-4.3s.08-3.27,1.1-4.29a3.66,3.66,0,0,1,2.6-.95,3.18,3.18,0,0,1,2.64,1.14v-1h2.62V274A4.4,4.4,0,0,1,66.15,278.47Zm.27-12.62c-1.6,0-1.77,1.37-1.77,2.81s.17,2.83,1.77,2.83,1.79-1.4,1.79-2.83S68,265.85,66.42,265.85Z"/><path class="cls-2" d="M79.5,274.38v-.94a3.3,3.3,0,0,1-2.67,1,3.71,3.71,0,0,1-2.76-1,3.47,3.47,0,0,1-.9-2.43c0-1.72,1.19-3.14,3.75-3.14h2.51v-.54c0-1.19-.58-1.71-2-1.71a2.38,2.38,0,0,0-2.08.94L73.63,265a4.52,4.52,0,0,1,3.89-1.54c3.06,0,4.62,1.29,4.62,3.82v7.14Zm-.07-4.58H77.38c-1.09,0-1.61.44-1.61,1.25s.52,1.23,1.65,1.23a2.09,2.09,0,0,0,1.6-.52,1.7,1.7,0,0,0,.41-1.38Z"/><path class="cls-2" d="M90.6,274.38v-.94a3.28,3.28,0,0,1-2.66,1,3.74,3.74,0,0,1-2.77-1,3.46,3.46,0,0,1-.89-2.43c0-1.72,1.18-3.14,3.74-3.14h2.52v-.54c0-1.19-.58-1.71-2-1.71a2.38,2.38,0,0,0-2.08.94L84.74,265a4.52,4.52,0,0,1,3.89-1.54c3.05,0,4.61,1.29,4.61,3.82v7.14Zm-.06-4.58H88.48c-1.08,0-1.6.44-1.6,1.25s.52,1.23,1.64,1.23a2.07,2.07,0,0,0,1.6-.52,1.66,1.66,0,0,0,.42-1.38Z"/><path class="cls-2" d="M102.45,274.38v-6.55a1.74,1.74,0,0,0-1.79-2,1.76,1.76,0,0,0-1.81,2v6.55h-2.7V263.54h2.64v1a3.72,3.72,0,0,1,2.71-1.12,3.51,3.51,0,0,1,2.55.95,4,4,0,0,1,1.11,3.08v6.93Z"/><path class="cls-2" d="M120.38,273.17A4.53,4.53,0,0,1,117,274.5a4.48,4.48,0,0,1-3.35-1.33c-1-1-1.23-2.27-1.23-4.22s.25-3.16,1.23-4.2a4.91,4.91,0,0,1,6.72,0c1,1,1.22,2.24,1.22,4.2S121.38,272.15,120.38,273.17Zm-2.1-6.84a1.89,1.89,0,0,0-2.52,0,5.89,5.89,0,0,0,0,5.26,1.89,1.89,0,0,0,2.52,0,5.89,5.89,0,0,0,0-5.26Z"/><path class="cls-2" d="M136.79,274.38v-6.55a1.81,1.81,0,1,0-3.6-.07v6.62h-2.71v-6.55a1.8,1.8,0,1,0-3.59,0v6.55h-2.71V263.54h2.64v1a3.8,3.8,0,0,1,2.71-1.12,3.36,3.36,0,0,1,2.87,1.37,4.11,4.11,0,0,1,3.24-1.37,3.78,3.78,0,0,1,2.66.95,4.09,4.09,0,0,1,1.19,3.08v6.93Z"/><path class="cls-2" d="M146.93,274.38v-2.44l5.53-6.42a2.58,2.58,0,0,0,.77-1.79,1.8,1.8,0,1,0-3.6,0h-2.7a4.22,4.22,0,0,1,4.51-4.33,4.17,4.17,0,0,1,4.5,4.31c0,1.43-.57,2.2-1.59,3.39l-4.13,4.8h5.72v2.44Z"/><path class="cls-2" d="M164.75,274.38v-1a3.68,3.68,0,0,1-2.7,1.12,3.49,3.49,0,0,1-2.56-1,4,4,0,0,1-1.1-3.07v-6.93h2.7v6.55a1.81,1.81,0,1,0,3.6,0v-6.55h2.7v10.84Z"/><path class="cls-2" d="M170.32,277.81v-6.39h3v4.1Z"/><path class="cls-2" d="M193.66,274.38v-6.55a1.81,1.81,0,1,0-3.6-.07v6.62h-2.71v-6.55a1.8,1.8,0,1,0-3.59,0v6.55h-2.71V263.54h2.64v1a3.8,3.8,0,0,1,2.71-1.12,3.36,3.36,0,0,1,2.87,1.37,4.11,4.11,0,0,1,3.24-1.37,3.78,3.78,0,0,1,2.66.95,4.09,4.09,0,0,1,1.19,3.08v6.93Z"/><path class="cls-2" d="M204.82,274.38v-.94a3.28,3.28,0,0,1-2.66,1,3.74,3.74,0,0,1-2.77-1,3.46,3.46,0,0,1-.89-2.43c0-1.72,1.19-3.14,3.74-3.14h2.52v-.54c0-1.19-.58-1.71-2-1.71a2.38,2.38,0,0,0-2.08.94L199,265a4.52,4.52,0,0,1,3.89-1.54c3.05,0,4.61,1.29,4.61,3.82v7.14Zm-.06-4.58H202.7c-1.08,0-1.6.44-1.6,1.25s.52,1.23,1.64,1.23a2.07,2.07,0,0,0,1.6-.52,1.66,1.66,0,0,0,.42-1.38Z"/><path class="cls-2" d="M215.93,274.38v-.94a3.3,3.3,0,0,1-2.67,1,3.71,3.71,0,0,1-2.76-1,3.42,3.42,0,0,1-.9-2.43c0-1.72,1.19-3.14,3.75-3.14h2.51v-.54c0-1.19-.58-1.71-2-1.71a2.38,2.38,0,0,0-2.08.94L210.06,265a4.52,4.52,0,0,1,3.89-1.54c3.06,0,4.62,1.29,4.62,3.82v7.14Zm-.07-4.58H213.8c-1.08,0-1.6.44-1.6,1.25s.52,1.23,1.65,1.23a2.09,2.09,0,0,0,1.6-.52,1.7,1.7,0,0,0,.41-1.38Z"/><path class="cls-2" d="M227.36,266.5a1.78,1.78,0,0,0-1.43-.65,1.8,1.8,0,0,0-1.75,2v6.53h-2.7V263.54h2.64v1a3.68,3.68,0,0,1,2.72-1.16,3.27,3.27,0,0,1,2.56,1Z"/><path class="cls-2" d="M237.88,269.8a2.22,2.22,0,0,0,2.37,2.41,3.09,3.09,0,0,0,2.46-1l1.64,1.6a5.1,5.1,0,0,1-4.12,1.7c-2.55,0-5-1.16-5-5.55,0-3.54,1.91-5.53,4.72-5.53,3,0,4.72,2.16,4.72,5.24v1.14Zm3.87-3a2,2,0,0,0-3.62,0,2.71,2.71,0,0,0-.25,1.16H242A2.57,2.57,0,0,0,241.75,266.79Z"/><path class="cls-2" d="M249.28,269.8a2.21,2.21,0,0,0,2.37,2.41,3.06,3.06,0,0,0,2.45-1l1.65,1.6a5.12,5.12,0,0,1-4.12,1.7c-2.56,0-5-1.16-5-5.55,0-3.54,1.91-5.53,4.72-5.53,3,0,4.72,2.16,4.72,5.24v1.14Zm3.87-3a1.89,1.89,0,0,0-1.81-1.13,1.87,1.87,0,0,0-1.81,1.13,2.57,2.57,0,0,0-.25,1.16h4.12A2.86,2.86,0,0,0,253.15,266.79Z"/><path class="cls-2" d="M264.44,266.5a1.81,1.81,0,0,0-3.19,1.35v6.53h-2.7V263.54h2.64v1a3.68,3.68,0,0,1,2.73-1.16,3.27,3.27,0,0,1,2.56,1Z"/><path class="cls-2" d="M271.36,274.5a5.94,5.94,0,0,1-4.62-1.56l1.77-1.77a3.89,3.89,0,0,0,2.89,1c.94,0,1.92-.31,1.92-1.12,0-.54-.27-.91-1.15-1l-1.74-.16c-1.92-.19-3.12-1-3.12-3,0-2.27,2-3.45,4.18-3.45a5.79,5.79,0,0,1,4.13,1.27L274,266.37a3.74,3.74,0,0,0-2.52-.73c-1.08,0-1.53.5-1.53,1s.31.86,1.12.94l1.7.16c2.15.21,3.23,1.34,3.23,3.19C276,273.36,273.92,274.5,271.36,274.5Z"/><path class="cls-2" d="M281.4,274.38a2.94,2.94,0,0,1-3.14-3.1v-5.37h-1.14v-2.06h1.14v-3.2H281v3.2h1.91v2.06H281v5.2c0,.63.29,1,.93,1h1v2.29Z"/><path class="cls-2" d="M296.46,274.38v-6.55a1.81,1.81,0,1,0-3.6,0v6.55h-2.7V263.54h2.64v1a3.69,3.69,0,0,1,2.7-1.12,3.53,3.53,0,0,1,2.56.95,4,4,0,0,1,1.1,3.08v6.93Z"/><path class="cls-2" d="M309.56,273.17a4.53,4.53,0,0,1-3.37,1.33,4.48,4.48,0,0,1-3.35-1.33c-1-1-1.23-2.27-1.23-4.22s.25-3.16,1.23-4.2a4.91,4.91,0,0,1,6.72,0c1,1,1.23,2.24,1.23,4.2S310.56,272.15,309.56,273.17Zm-2.1-6.84a1.89,1.89,0,0,0-2.52,0,5.89,5.89,0,0,0,0,5.26,1.89,1.89,0,0,0,2.52,0,5.89,5.89,0,0,0,0-5.26Z"/><path class="cls-2" d="M317.11,278.47a5.06,5.06,0,0,1-3.93-1.41l1.68-1.71a2.74,2.74,0,0,0,2.12.84,2.06,2.06,0,0,0,2.19-2.25v-1.1a3.18,3.18,0,0,1-2.58,1.08,3.58,3.58,0,0,1-2.58-1c-1-1-1.1-2.41-1.1-4.3s.08-3.27,1.1-4.29a3.66,3.66,0,0,1,2.6-.95,3.18,3.18,0,0,1,2.64,1.14v-1h2.62V274A4.4,4.4,0,0,1,317.11,278.47Zm.27-12.62c-1.6,0-1.77,1.37-1.77,2.81s.17,2.83,1.77,2.83,1.79-1.4,1.79-2.83S319,265.85,317.38,265.85Z"/><path class="cls-2" d="M30.69,294.75a2.22,2.22,0,0,0,2.37,2.42,3.09,3.09,0,0,0,2.46-1l1.64,1.6A5.1,5.1,0,0,1,33,299.46c-2.56,0-5-1.17-5-5.56,0-3.53,1.91-5.53,4.72-5.53,3,0,4.72,2.16,4.72,5.24v1.14Zm3.87-3a2,2,0,0,0-3.62,0,2.71,2.71,0,0,0-.25,1.16h4.12A2.57,2.57,0,0,0,34.56,291.74Z"/><path class="cls-2" d="M46.27,299.33v-6.55a1.81,1.81,0,1,0-3.6,0v6.55H40V288.49h2.64v1a3.68,3.68,0,0,1,2.7-1.12,3.49,3.49,0,0,1,2.56,1A4,4,0,0,1,49,292.4v6.93Z"/><path class="cls-2" d="M54,294.75a2.22,2.22,0,0,0,2.37,2.42,3.09,3.09,0,0,0,2.46-1l1.64,1.6a5.1,5.1,0,0,1-4.12,1.71c-2.55,0-5-1.17-5-5.56,0-3.53,1.91-5.53,4.72-5.53,3,0,4.72,2.16,4.72,5.24v1.14Zm3.87-3a2,2,0,0,0-3.62,0A2.71,2.71,0,0,0,54,292.9h4.12A2.57,2.57,0,0,0,57.87,291.74Z"/><path class="cls-2" d="M76.05,298.48a3.66,3.66,0,0,1-2.62,1,3.2,3.2,0,0,1-2.63-1.09v4.93H68.1V288.49h2.62v1a3.28,3.28,0,0,1,2.71-1.14,3.62,3.62,0,0,1,2.62,1c1,1.06,1.12,2.74,1.12,4.55S77.09,297.42,76.05,298.48Zm-3.42-7.68c-1.62,0-1.83,1.36-1.83,3.1S71,297,72.63,297s1.84-1.37,1.84-3.12S74.26,290.8,72.63,290.8Z"/><path class="cls-2" d="M85.3,299.33v-.94a3.3,3.3,0,0,1-2.66,1,3.76,3.76,0,0,1-2.77-.95A3.5,3.5,0,0,1,79,296c0-1.72,1.18-3.14,3.74-3.14h2.52v-.54c0-1.18-.59-1.7-2-1.7a2.4,2.4,0,0,0-2.08.93l-1.71-1.68a4.52,4.52,0,0,1,3.89-1.54c3.06,0,4.62,1.29,4.62,3.83v7.13Zm-.06-4.58H83.18c-1.08,0-1.6.44-1.6,1.25s.52,1.23,1.64,1.23a2.05,2.05,0,0,0,1.6-.52,1.68,1.68,0,0,0,.42-1.37Z"/><path class="cls-2" d="M97.36,299.33l-2.66-4.51-1.15,1.29v3.22h-2.7V284.52h2.7v8.4l3.6-4.43h3.27l-3.87,4.37,4.16,6.47Z"/><path class="cls-2" d="M109,299.33l-2.66-4.51-1.14,1.29v3.22h-2.71V284.52h2.71v8.4l3.59-4.43H112l-3.87,4.37,4.16,6.47Z"/><path class="cls-2" d="M115.39,294.75a2.22,2.22,0,0,0,2.37,2.42,3.08,3.08,0,0,0,2.45-1l1.64,1.6a5.09,5.09,0,0,1-4.11,1.71c-2.56,0-5-1.17-5-5.56,0-3.53,1.92-5.53,4.72-5.53,3,0,4.73,2.16,4.73,5.24v1.14Zm3.86-3a2,2,0,0,0-3.61,0,2.57,2.57,0,0,0-.25,1.16h4.11A2.57,2.57,0,0,0,119.25,291.74Z"/><path class="cls-2" d="M131,299.33v-6.55a1.81,1.81,0,1,0-3.6,0v6.55h-2.7V288.49h2.64v1a3.71,3.71,0,0,1,2.7-1.12,3.48,3.48,0,0,1,2.56,1,4,4,0,0,1,1.1,3.07v6.93Z"/><path class="cls-2" d="M148.89,298.12a4.53,4.53,0,0,1-3.37,1.34,4.46,4.46,0,0,1-3.35-1.34c-1-1-1.23-2.26-1.23-4.22s.25-3.16,1.23-4.2a4.91,4.91,0,0,1,6.72,0c1,1,1.22,2.25,1.22,4.2S149.88,297.1,148.89,298.12Zm-2.1-6.84a1.74,1.74,0,0,0-1.27-.48,1.7,1.7,0,0,0-1.25.48,5.8,5.8,0,0,0,0,5.26,1.66,1.66,0,0,0,1.25.48,1.7,1.7,0,0,0,1.27-.48,5.89,5.89,0,0,0,0-5.26Z"/><path class="cls-2" d="M160.63,298.48a3.64,3.64,0,0,1-2.62,1,3.19,3.19,0,0,1-2.62-1.09v4.93h-2.7V288.49h2.62v1a3.27,3.27,0,0,1,2.7-1.14,3.6,3.6,0,0,1,2.62,1c1,1.06,1.13,2.74,1.13,4.55S161.67,297.42,160.63,298.48Zm-3.41-7.68c-1.62,0-1.83,1.36-1.83,3.1s.21,3.12,1.83,3.12,1.83-1.37,1.83-3.12S158.85,290.8,157.22,290.8Z"/><path class="cls-2" d="M173.46,299.46c-2.16,0-4.84-1.17-4.84-5.56s2.68-5.53,4.84-5.53a4.62,4.62,0,0,1,3.58,1.46l-1.83,1.83a2.18,2.18,0,0,0-1.75-.86,1.89,1.89,0,0,0-1.54.71,3.71,3.71,0,0,0-.6,2.39,3.76,3.76,0,0,0,.6,2.41,1.89,1.89,0,0,0,1.54.71,2.19,2.19,0,0,0,1.75-.85L177,298A4.63,4.63,0,0,1,173.46,299.46Z"/><path class="cls-2" d="M184.59,299.33v-.94a3.28,3.28,0,0,1-2.66,1,3.76,3.76,0,0,1-2.77-.95,3.5,3.5,0,0,1-.89-2.44c0-1.72,1.18-3.14,3.74-3.14h2.52v-.54c0-1.18-.59-1.7-2-1.7a2.4,2.4,0,0,0-2.08.93l-1.71-1.68a4.52,4.52,0,0,1,3.89-1.54c3.06,0,4.62,1.29,4.62,3.83v7.13Zm-.06-4.58h-2.06c-1.08,0-1.6.44-1.6,1.25s.52,1.23,1.64,1.23a2,2,0,0,0,1.6-.52,1.68,1.68,0,0,0,.42-1.37Z"/><path class="cls-2" d="M193.18,290.87v8.46h-2.71v-8.46h-1.12v-2.06h1.12v-1.35a3,3,0,0,1,3.16-3.1h1.54v2.28h-1.06c-.64,0-.93.36-.93,1v1.19h2v2.06Z"/><path class="cls-2" d="M199.06,294.75a2.22,2.22,0,0,0,2.37,2.42,3.09,3.09,0,0,0,2.46-1l1.64,1.6a5.1,5.1,0,0,1-4.12,1.71c-2.56,0-5-1.17-5-5.56,0-3.53,1.91-5.53,4.72-5.53,3,0,4.72,2.16,4.72,5.24v1.14Zm3.87-3a2,2,0,0,0-3.62,0,2.57,2.57,0,0,0-.25,1.16h4.12A2.57,2.57,0,0,0,202.93,291.74Zm-1.08-5H200l1.33-3.54h2.85Z"/><path class="cls-1" d="M502.37,231.84a4.48,4.48,0,0,1-7.76,3l-19.3-20.74a23,23,0,0,0-16.87-7.35H275.86a28.3,28.3,0,0,1-28.3-28.31v-32.2a28.3,28.3,0,0,1,28.3-28.3H474.07a28.3,28.3,0,0,1,28.3,28.3Z"/><path class="cls-2" d="M279.73,156.16a4.86,4.86,0,0,1-3.81-1.51l1.92-1.9a2.33,2.33,0,0,0,1.89.83,2.21,2.21,0,0,0,2.33-2.53v-9.82H285v9.94C285,154.44,282.47,156.16,279.73,156.16Z"/><path class="cls-2" d="M294.24,156v-1a3.68,3.68,0,0,1-2.7,1.12,3.53,3.53,0,0,1-2.56-.95,4,4,0,0,1-1.1-3.08V145.2h2.7v6.55a1.81,1.81,0,1,0,3.6,0V145.2h2.7V156Z"/><path class="cls-2" d="M306.16,156v-1a3.72,3.72,0,0,1-2.71,1.12,3.51,3.51,0,0,1-2.55-.95,4,4,0,0,1-1.11-3.08V145.2h2.71v6.55a1.74,1.74,0,0,0,1.79,2,1.76,1.76,0,0,0,1.81-2V145.2h2.7V156Z"/><path class="cls-2" d="M311.73,159.47v-6.38h3v4.09Z"/><path class="cls-2" d="M330.4,155.19a3.64,3.64,0,0,1-2.62,1,3.27,3.27,0,0,1-2.7-1.14v1h-2.62V141.23h2.7v4.93a3.18,3.18,0,0,1,2.62-1.08,3.57,3.57,0,0,1,2.62,1c1,1.06,1.13,2.74,1.13,4.55S331.44,154.13,330.4,155.19ZM327,147.51c-1.62,0-1.83,1.35-1.83,3.1s.21,3.12,1.83,3.12,1.83-1.37,1.83-3.12S328.62,147.51,327,147.51Z"/><path class="cls-2" d="M336.23,151.46a2.22,2.22,0,0,0,2.37,2.42,3.08,3.08,0,0,0,2.45-1l1.64,1.6a5.1,5.1,0,0,1-4.12,1.7c-2.55,0-5-1.16-5-5.55,0-3.53,1.92-5.53,4.72-5.53,3,0,4.73,2.16,4.73,5.24v1.14Zm3.86-3a2,2,0,0,0-3.61,0,2.57,2.57,0,0,0-.25,1.16h4.11A2.57,2.57,0,0,0,340.09,148.45Z"/><path class="cls-2" d="M351.8,156v-6.55a1.81,1.81,0,1,0-3.6,0V156h-2.7V145.2h2.64v1a3.71,3.71,0,0,1,2.7-1.12,3.49,3.49,0,0,1,2.56,1,4,4,0,0,1,1.1,3.07V156Z"/><path class="cls-2" d="M366.54,156.16c-2.16,0-4.84-1.16-4.84-5.55s2.68-5.53,4.84-5.53a4.62,4.62,0,0,1,3.58,1.46l-1.83,1.83a2.18,2.18,0,0,0-1.75-.86,1.89,1.89,0,0,0-1.54.71,3.71,3.71,0,0,0-.6,2.39A3.78,3.78,0,0,0,365,153a1.89,1.89,0,0,0,1.54.71,2.19,2.19,0,0,0,1.75-.85l1.83,1.81A4.63,4.63,0,0,1,366.54,156.16Z"/><path class="cls-2" d="M378.52,156v-6.55a1.81,1.81,0,1,0-3.6,0V156h-2.7V141.23h2.7v5a3.78,3.78,0,0,1,5.2-.16,4,4,0,0,1,1.1,3.07V156Z"/><path class="cls-2" d="M389.69,156v-.94a3.3,3.3,0,0,1-2.67,1,3.75,3.75,0,0,1-2.76-.95,3.51,3.51,0,0,1-.9-2.44c0-1.72,1.19-3.14,3.75-3.14h2.51v-.54c0-1.18-.58-1.7-2-1.7a2.4,2.4,0,0,0-2.08.93l-1.71-1.68a4.52,4.52,0,0,1,3.89-1.54c3.06,0,4.62,1.29,4.62,3.83V156Zm-.07-4.58h-2.05c-1.09,0-1.61.44-1.61,1.25s.52,1.23,1.65,1.23a2.05,2.05,0,0,0,1.6-.52,1.68,1.68,0,0,0,.41-1.37Z"/><path class="cls-2" d="M401.48,156v-1a3.72,3.72,0,0,1-2.71,1.12,3.51,3.51,0,0,1-2.55-.95,4,4,0,0,1-1.11-3.08V145.2h2.71v6.55a1.8,1.8,0,1,0,3.59,0V145.2h2.71V156Z"/><path class="cls-2" d="M413.14,156v-1a3.26,3.26,0,0,1-2.68,1.14,3.65,3.65,0,0,1-2.64-1c-1-1.06-1.13-2.75-1.13-4.58s.09-3.49,1.13-4.55a3.57,3.57,0,0,1,2.62-1,3.25,3.25,0,0,1,2.64,1.08v-4.93h2.7V156Zm-1.91-8.53c-1.62,0-1.83,1.35-1.83,3.1s.21,3.12,1.83,3.12,1.85-1.37,1.85-3.12S412.85,147.51,411.23,147.51Z"/><path class="cls-2" d="M418.71,156V153h3.1V156Z"/><path class="cls-2" d="M290.21,181H287.8l-2.73-9-2.72,9h-2.41l-4-14.81h3l2.29,9.34,2.7-9.34h2.16l2.71,9.34,2.31-9.34h3Z"/><path class="cls-2" d="M300.75,181v-.93a3.31,3.31,0,0,1-2.66,1,3.78,3.78,0,0,1-2.77-1,3.48,3.48,0,0,1-.89-2.43c0-1.73,1.18-3.14,3.74-3.14h2.52V174c0-1.19-.58-1.71-2-1.71a2.38,2.38,0,0,0-2.08.94l-1.7-1.69a4.54,4.54,0,0,1,3.88-1.54c3.06,0,4.62,1.29,4.62,3.83V181Zm-.06-4.57h-2.06c-1.08,0-1.6.43-1.6,1.24s.52,1.23,1.64,1.23a2,2,0,0,0,1.6-.52,1.67,1.67,0,0,0,.42-1.37Z"/><path class="cls-2" d="M312.6,181v-6.55a1.8,1.8,0,1,0-3.59,0V181H306.3V170.16h2.64v1a3.73,3.73,0,0,1,2.71-1.13,3.55,3.55,0,0,1,2.56,1,4,4,0,0,1,1.1,3.08V181Z"/><path class="cls-2" d="M324.52,181v-6.55a1.81,1.81,0,1,0-3.6,0V181h-2.7V170.16h2.64v1a3.69,3.69,0,0,1,2.7-1.13,3.54,3.54,0,0,1,2.56,1,4,4,0,0,1,1.1,3.08V181Z"/><path class="cls-2" d="M332.25,176.42a2.22,2.22,0,0,0,2.37,2.41,3.06,3.06,0,0,0,2.46-1l1.64,1.6a5.1,5.1,0,0,1-4.12,1.71c-2.55,0-5-1.17-5-5.56,0-3.53,1.91-5.53,4.72-5.53,3,0,4.72,2.16,4.72,5.24v1.15Zm3.87-3a2,2,0,0,0-3.62,0,2.79,2.79,0,0,0-.25,1.17h4.12A2.64,2.64,0,0,0,336.12,173.4Z"/><path class="cls-2" d="M343.65,176.42a2.22,2.22,0,0,0,2.37,2.41,3,3,0,0,0,2.45-1l1.65,1.6a5.13,5.13,0,0,1-4.12,1.71c-2.56,0-5-1.17-5-5.56,0-3.53,1.91-5.53,4.72-5.53,3,0,4.72,2.16,4.72,5.24v1.15Zm3.87-3a2,2,0,0,0-3.62,0,2.64,2.64,0,0,0-.25,1.17h4.12A3,3,0,0,0,347.52,173.4Z"/><path class="cls-2" d="M358.81,173.11a1.81,1.81,0,0,0-3.19,1.35V181h-2.7V170.16h2.64v1a3.65,3.65,0,0,1,2.73-1.17,3.27,3.27,0,0,1,2.56,1Z"/><path class="cls-2" d="M371,185.09a5,5,0,0,1-3.93-1.42l1.68-1.7a2.78,2.78,0,0,0,2.12.83,2,2,0,0,0,2.19-2.24v-1.11a3.18,3.18,0,0,1-2.58,1.08,3.61,3.61,0,0,1-2.58-.95c-1-1-1.1-2.42-1.1-4.31s.08-3.26,1.1-4.28a3.67,3.67,0,0,1,2.6-1,3.16,3.16,0,0,1,2.64,1.15v-1h2.62V180.6A4.4,4.4,0,0,1,371,185.09Zm.27-12.63c-1.6,0-1.77,1.38-1.77,2.81s.17,2.83,1.77,2.83,1.79-1.39,1.79-2.83S372.82,172.46,371.22,172.46Z"/><path class="cls-2" d="M384.3,181v-.93a3.31,3.31,0,0,1-2.66,1,3.78,3.78,0,0,1-2.77-1,3.48,3.48,0,0,1-.89-2.43c0-1.73,1.18-3.14,3.74-3.14h2.52V174c0-1.19-.58-1.71-2-1.71a2.38,2.38,0,0,0-2.08.94l-1.7-1.69a4.54,4.54,0,0,1,3.88-1.54c3.06,0,4.62,1.29,4.62,3.83V181Zm-.06-4.57h-2.06c-1.08,0-1.6.43-1.6,1.24s.52,1.23,1.64,1.23a2,2,0,0,0,1.6-.52,1.67,1.67,0,0,0,.42-1.37Z"/><path class="cls-2" d="M395.4,181v-.93a3.3,3.3,0,0,1-2.66,1,3.74,3.74,0,0,1-2.76-1,3.44,3.44,0,0,1-.9-2.43c0-1.73,1.19-3.14,3.74-3.14h2.52V174c0-1.19-.58-1.71-2-1.71a2.41,2.41,0,0,0-2.08.94l-1.7-1.69a4.55,4.55,0,0,1,3.89-1.54c3.05,0,4.62,1.29,4.62,3.83V181Zm-.06-4.57h-2.06c-1.08,0-1.6.43-1.6,1.24s.52,1.23,1.64,1.23a2.06,2.06,0,0,0,1.61-.52,1.67,1.67,0,0,0,.41-1.37Z"/><path class="cls-2" d="M407.26,181v-6.55a1.81,1.81,0,1,0-3.6,0V181H401V170.16h2.65v1a3.69,3.69,0,0,1,2.7-1.13,3.55,3.55,0,0,1,2.56,1,4,4,0,0,1,1.1,3.08V181Z"/><path class="cls-2" d="M417.24,185.05H415.7v-2.29h1c.68,0,.95-.33.95-1V170.47h2.71V182A3,3,0,0,1,417.24,185.05Zm.41-16.74V166.1h2.77v2.21Z"/><path class="cls-2" d="M429.65,181v-1a3.72,3.72,0,0,1-2.7,1.13,3.54,3.54,0,0,1-2.56-1,4,4,0,0,1-1.1-3.08v-6.92H426v6.55a1.81,1.81,0,1,0,3.6,0v-6.55h2.7V181Z"/><path class="cls-2" d="M438.38,181a3,3,0,0,1-3.16-3.1V166.18h2.71v11.55c0,.64.27,1,.95,1h1V181Z"/><path class="cls-2" d="M445.14,181a3,3,0,0,1-3.16-3.1V166.18h2.7v11.55c0,.64.27,1,1,1h1V181Z"/><path class="cls-2" d="M448.8,168.31V166.1h2.77v2.21Zm0,12.68V170.47h2.71V181Z"/><path class="cls-2" d="M456.68,176.42a2.22,2.22,0,0,0,2.37,2.41,3.06,3.06,0,0,0,2.46-1l1.64,1.6a5.1,5.1,0,0,1-4.12,1.71c-2.56,0-5-1.17-5-5.56,0-3.53,1.91-5.53,4.72-5.53,3,0,4.72,2.16,4.72,5.24v1.15Zm3.87-3a2,2,0,0,0-3.62,0,2.64,2.64,0,0,0-.25,1.17h4.12A2.64,2.64,0,0,0,460.55,173.4Z"/><path class="cls-2" d="M473.55,172.82l-1.54,2a1.9,1.9,0,0,0-.38,1.06v.43h-2.7v-.62a3.19,3.19,0,0,1,.79-2.16l1.54-2a2.48,2.48,0,0,0,.6-1.39,1.61,1.61,0,0,0-1.68-1.71,1.59,1.59,0,0,0-1.67,1.73h-2.7a4.38,4.38,0,0,1,8.75,0A4.18,4.18,0,0,1,473.55,172.82Zm-4.7,8.17v-2.76h2.87V181Z"/><path class="cls-1" d="M502.37,468.52a4.48,4.48,0,0,1-7.76,3.05l-19.3-20.74a23,23,0,0,0-16.87-7.35l-182.58-.35a28.3,28.3,0,0,1-28.3-28.31v-32.2a28.3,28.3,0,0,1,28.3-28.3l198.21.35a28.3,28.3,0,0,1,28.3,28.3Z"/><path class="cls-2" d="M282.56,392.84a5.36,5.36,0,0,1-4-1.56c-1.47-1.48-1.49-3.14-1.49-6s0-4.49,1.49-6a5.36,5.36,0,0,1,4-1.56,5.21,5.21,0,0,1,5.42,4.68h-3a2.43,2.43,0,0,0-2.47-2.1,2.37,2.37,0,0,0-1.85.77c-.55.62-.73,1.35-.73,4.18s.18,3.56.73,4.18a2.37,2.37,0,0,0,1.85.77,2.44,2.44,0,0,0,2.49-2.1H288A5.22,5.22,0,0,1,282.56,392.84Z"/><path class="cls-2" d="M295,392.72h-2.12l-4-10.84h2.85l2.21,6.7,2.18-6.7h2.85Z"/><path class="cls-2" d="M299.38,396.15v-6.39h3v4.1Z"/><path class="cls-2" d="M321,392.72h-2.22l-2.27-6.81-2.26,6.81H312l-3.33-10.84h2.87l1.75,6.7,2.2-6.7h2l2.23,6.7,1.74-6.7h2.85Z"/><path class="cls-2" d="M327.91,388.14a2.22,2.22,0,0,0,2.37,2.41,3,3,0,0,0,2.45-1l1.65,1.6a5.1,5.1,0,0,1-4.12,1.71c-2.56,0-5-1.16-5-5.55,0-3.54,1.91-5.54,4.72-5.54,3,0,4.72,2.17,4.72,5.25v1.14Zm3.87-3A1.9,1.9,0,0,0,330,384a1.88,1.88,0,0,0-1.81,1.12,2.64,2.64,0,0,0-.25,1.17H332A3,3,0,0,0,331.78,385.12Z"/><path class="cls-2" d="M352.88,392.72h-2.22l-2.27-6.81-2.27,6.81H343.9l-3.33-10.84h2.87l1.75,6.7,2.2-6.7h2l2.22,6.7,1.75-6.7h2.85Z"/><path class="cls-2" d="M359.81,388.14a2.22,2.22,0,0,0,2.37,2.41,3.05,3.05,0,0,0,2.45-1l1.64,1.6a5.07,5.07,0,0,1-4.12,1.71c-2.55,0-5-1.16-5-5.55,0-3.54,1.92-5.54,4.72-5.54,3,0,4.73,2.17,4.73,5.25v1.14Zm3.86-3a2,2,0,0,0-3.61,0,2.64,2.64,0,0,0-.25,1.17h4.11A2.64,2.64,0,0,0,363.67,385.12Z"/><path class="cls-2" d="M372.47,392.72a2.94,2.94,0,0,1-3.14-3.1v-5.37h-1.15v-2.06h1.15V379H372v3.2h1.91v2.06H372v5.2c0,.62.29,1,.94,1h1v2.29Z"/><path class="cls-2" d="M378.42,388.14a2.22,2.22,0,0,0,2.37,2.41,3.05,3.05,0,0,0,2.45-1l1.64,1.6a5.06,5.06,0,0,1-4.11,1.71c-2.56,0-5-1.16-5-5.55,0-3.54,1.92-5.54,4.72-5.54,3,0,4.73,2.17,4.73,5.25v1.14Zm3.86-3a2,2,0,0,0-3.61,0,2.64,2.64,0,0,0-.25,1.17h4.11A2.64,2.64,0,0,0,382.28,385.12Z"/><path class="cls-2" d="M394,392.72v-6.56a1.81,1.81,0,1,0-3.6,0v6.56h-2.7V381.88h2.64v1a3.72,3.72,0,0,1,2.7-1.13,3.54,3.54,0,0,1,2.56,1,4,4,0,0,1,1.1,3.08v6.93Z"/><path class="cls-2" d="M404,396.77h-1.54v-2.29h1c.69,0,1-.33,1-1V382.19h2.7v11.48A2.94,2.94,0,0,1,404,396.77Zm.42-16.74v-2.21h2.76V380Z"/><path class="cls-2" d="M416.39,392.72v-1a3.72,3.72,0,0,1-2.71,1.12,3.51,3.51,0,0,1-2.56-1,4,4,0,0,1-1.1-3.07v-6.93h2.7v6.55a1.81,1.81,0,1,0,3.6,0v-6.55H419v10.84Z"/><path class="cls-2" d="M425.12,392.72a2.94,2.94,0,0,1-3.16-3.1V377.91h2.7v11.54c0,.64.27,1,1,1h1v2.29Z"/><path class="cls-2" d="M431.88,392.72a3,3,0,0,1-3.17-3.1V377.91h2.71v11.54c0,.64.27,1,.95,1h1v2.29Z"/><path class="cls-2" d="M435.53,380v-2.21h2.77V380Zm.05,12.69V382.19h2.7v10.53Z"/><path class="cls-2" d="M443.42,388.14a2.22,2.22,0,0,0,2.37,2.41,3.05,3.05,0,0,0,2.45-1l1.64,1.6a5.06,5.06,0,0,1-4.11,1.71c-2.56,0-5-1.16-5-5.55,0-3.54,1.92-5.54,4.72-5.54,3,0,4.73,2.17,4.73,5.25v1.14Zm3.86-3a2,2,0,0,0-3.61,0,2.64,2.64,0,0,0-.25,1.17h4.11A2.64,2.64,0,0,0,447.28,385.12Z"/><path class="cls-2" d="M288.26,417.67H286l-2.27-6.8-2.26,6.8h-2.23l-3.33-10.84h2.87l1.75,6.7,2.2-6.7h2l2.23,6.7,1.74-6.7h2.85Z"/><path class="cls-2" d="M295.18,413.09a2.22,2.22,0,0,0,2.37,2.42,3.07,3.07,0,0,0,2.45-1l1.65,1.6a5.12,5.12,0,0,1-4.12,1.7c-2.56,0-5-1.16-5-5.55,0-3.53,1.91-5.53,4.72-5.53,3,0,4.72,2.16,4.72,5.24v1.14Zm3.87-3a2,2,0,0,0-3.62,0,2.57,2.57,0,0,0-.25,1.16h4.12A2.86,2.86,0,0,0,299.05,410.08Z"/><path class="cls-2" d="M307.51,417.67a2.94,2.94,0,0,1-3.16-3.1V402.86h2.7V414.4c0,.65.27,1,1,1h1v2.29Z"/><path class="cls-2" d="M319.42,417.67a2.94,2.94,0,0,1-3.14-3.1V409.2h-1.14v-2.05h1.14v-3.21H319v3.21h1.91v2.05H319v5.2c0,.63.29,1,.93,1h1v2.29Z"/><path class="cls-2" d="M325.37,413.09a2.22,2.22,0,0,0,2.37,2.42,3.09,3.09,0,0,0,2.46-1l1.64,1.6a5.1,5.1,0,0,1-4.12,1.7c-2.56,0-5-1.16-5-5.55,0-3.53,1.91-5.53,4.72-5.53,3,0,4.72,2.16,4.72,5.24v1.14Zm3.87-3a2,2,0,0,0-3.62,0,2.57,2.57,0,0,0-.25,1.16h4.12A2.57,2.57,0,0,0,329.24,410.08Z"/><path class="cls-2" d="M344.15,417.67H342l-4-10.84h2.85l2.21,6.7,2.18-6.7h2.85Z"/><path class="cls-2" d="M349.68,405v-2.2h2.76V405Zm0,12.69V407.15h2.7v10.52Z"/><path class="cls-2" d="M361.74,417.67v-6.55a1.81,1.81,0,1,0-3.6,0v6.55h-2.7V406.83h2.64v1a3.68,3.68,0,0,1,2.7-1.12,3.53,3.53,0,0,1,2.56,1,4,4,0,0,1,1.1,3.08v6.93Z"/><path class="cls-2" d="M373.34,417.67v-1a3.26,3.26,0,0,1-2.68,1.14,3.65,3.65,0,0,1-2.64-1c-1-1.06-1.13-2.75-1.13-4.58s.09-3.49,1.13-4.55a3.57,3.57,0,0,1,2.62-1,3.25,3.25,0,0,1,2.64,1.08v-4.93H376v14.81Zm-1.91-8.53c-1.62,0-1.83,1.35-1.83,3.1s.21,3.12,1.83,3.12,1.85-1.37,1.85-3.12S373.05,409.14,371.43,409.14Z"/><path class="cls-2" d="M381.14,413.09a2.22,2.22,0,0,0,2.37,2.42,3.07,3.07,0,0,0,2.45-1l1.65,1.6a5.12,5.12,0,0,1-4.12,1.7c-2.56,0-5-1.16-5-5.55,0-3.53,1.91-5.53,4.72-5.53,3,0,4.72,2.16,4.72,5.24v1.14Zm3.87-3a2,2,0,0,0-3.62,0,2.57,2.57,0,0,0-.25,1.16h4.12A2.86,2.86,0,0,0,385,410.08Z"/><path class="cls-2" d="M396.71,417.67v-6.55a1.74,1.74,0,0,0-1.79-2,1.76,1.76,0,0,0-1.81,2v6.55h-2.7V406.83h2.64v1a3.72,3.72,0,0,1,2.71-1.12,3.51,3.51,0,0,1,2.55,1,4,4,0,0,1,1.11,3.08v6.93Z"/><path class="cls-1" d="M0,556.51a4.48,4.48,0,0,0,7.76,3l19.29-20.74a23.05,23.05,0,0,1,16.88-7.35h48.8A28.3,28.3,0,0,0,121,503.16V501a28.3,28.3,0,0,0-28.3-28.3H28.3A28.3,28.3,0,0,0,0,501Z"/><path class="cls-2" d="M35.74,506.89a3.53,3.53,0,0,1-.79-.08,3.92,3.92,0,0,1-.74-.22,4.14,4.14,0,0,1-.69-.37,3.69,3.69,0,0,1-.61-.5,4.08,4.08,0,0,1-.5-.6,4.24,4.24,0,0,1-.37-.7,3.92,3.92,0,0,1-.22-.74,3.89,3.89,0,0,1,0-1.57,3.92,3.92,0,0,1,.22-.74,4.24,4.24,0,0,1,.37-.7,3.62,3.62,0,0,1,.5-.6,3.25,3.25,0,0,1,.61-.5,3.52,3.52,0,0,1,.69-.37A4,4,0,0,1,35,499a4,4,0,0,1,3.61,1.1,3.19,3.19,0,0,1,.5.6,3.6,3.6,0,0,1,.37.7,4,4,0,0,1,.23.74,3.89,3.89,0,0,1,0,1.57,4,4,0,0,1-.23.74,3.6,3.6,0,0,1-.37.7,3.54,3.54,0,0,1-.5.6A4,4,0,0,1,35.74,506.89Z"/><path class="cls-2" d="M60.27,502.89a4,4,0,0,1,4-4h0a4,4,0,0,1,4,4h0a4,4,0,0,1-4,4h0A4,4,0,0,1,60.27,502.89Z"/><path class="cls-2" d="M92.81,506.89A4,4,0,0,1,90,505.72a3.54,3.54,0,0,1-.5-.6,3.6,3.6,0,0,1-.37-.7,4,4,0,0,1-.23-.74,4.44,4.44,0,0,1,0-1.57,4,4,0,0,1,.23-.74,3.6,3.6,0,0,1,.37-.7,4.31,4.31,0,0,1,1.1-1.1,3.83,3.83,0,0,1,.69-.37A4.3,4.3,0,0,1,92,499a4,4,0,0,1,3.61,1.1,4,4,0,0,1,1.18,2.83,4.13,4.13,0,0,1-.08.78,4.87,4.87,0,0,1-.23.74,4.24,4.24,0,0,1-.37.7,4.08,4.08,0,0,1-.5.6A4,4,0,0,1,92.81,506.89Z"/></g></g></svg>